<svg xmlns="http://www.w3.org/2000/svg" data-name="Layer 1" viewBox="0 0 100 125" x="0px" y="0px"><defs><style>.cls-1{stroke:#000;stroke-miterlimit:10;stroke-width:2.15px;}</style></defs><title>Artboard 20</title><path class="cls-1" d="M85,12.87H15A2.15,2.15,0,0,0,12.87,15V85A2.15,2.15,0,0,0,15,87.13H85A2.15,2.15,0,0,0,87.13,85V15A2.15,2.15,0,0,0,85,12.87ZM41.39,80.8c-4.68-9.36-13.7-21.39-20-27.76l6.07-6.85A93.79,93.79,0,0,1,41,63.71c8.2-15.36,24-34.44,34.2-44.51l3.42,3.86A242.5,242.5,0,0,0,41.39,80.8Z"/></svg>