<svg xmlns="http://www.w3.org/2000/svg" xmlns:xlink="http://www.w3.org/1999/xlink" version="1.1" x="0px" y="0px" viewBox="0 0 100 100" enable-background="new 0 0 100 100" xml:space="preserve"><g><path d="M94.574,30.103c-0.27-0.27-0.644-0.425-1.026-0.425H6.452c-0.382,0-0.756,0.155-1.026,0.425   C5.155,30.373,5,30.747,5,31.129v37.742c0,0.382,0.155,0.756,0.425,1.026c0.27,0.27,0.644,0.425,1.026,0.425h87.096   c0.388,0,0.752-0.151,1.026-0.425C94.849,69.623,95,69.259,95,68.871V31.129C95,30.747,94.845,30.373,94.574,30.103z M7.904,32.581   h84.193l0,34.839H7.904V32.581z"/><path d="M15.945,37.903c-0.802,0-1.452,0.65-1.452,1.452v21.291c0,0.802,0.65,1.452,1.452,1.452c0.802,0,1.452-0.65,1.452-1.452"/></g></svg>